<?xml version="1.0" encoding="iso-8859-1"?>
<!-- Generator: Adobe Illustrator 19.0.0, SVG Export Plug-In . SVG Version: 6.00 Build 0)  -->
<svg version="1.1" id="Capa_1" xmlns="http://www.w3.org/2000/svg" xmlns:xlink="http://www.w3.org/1999/xlink" x="0px" y="0px"
	 viewBox="0 0 512 512" style="enable-background:new 0 0 512 512;" xml:space="preserve">
<g>
	<g>
		<path d="M320,117.333v32c0,35.346-28.654,64-64,64s-64-28.654-64-64v-32h-21.333v32c0.053,47.106,38.227,85.28,85.333,85.333
			c47.106-0.053,85.28-38.227,85.333-85.333v-32H320z"/>
	</g>
</g>
<g>
	<g>
		<path d="M373.739,279.755l-75.072-38.933v-27.488h-21.333v33.984c0.004,3.982,2.225,7.63,5.76,9.461l80.832,41.888
			c25.183,11.339,41.386,36.382,41.408,64v128H106.667v-128c0.022-27.618,16.225-52.661,41.408-64l80.832-41.888
			c3.535-1.832,5.756-5.48,5.76-9.461v-33.984h-21.333v27.488l-75.072,38.933c-32.355,14.891-53.041,47.296-52.928,82.912v138.667
			C85.333,507.224,90.109,512,96,512h320c5.891,0,10.667-4.776,10.667-10.667V362.667
			C426.779,327.05,406.093,294.645,373.739,279.755z"/>
	</g>
</g>
<g>
	<g>
		<rect x="138.667" y="426.667" width="21.333" height="74.667"/>
	</g>
</g>
<g>
	<g>
		<rect x="352" y="426.667" width="21.333" height="74.667"/>
	</g>
</g>
<g>
	<g>
		<rect x="138.667" y="106.667" width="234.667" height="21.333"/>
	</g>
</g>
<g>
	<g>
		<path d="M256,0c-53.019,0-96,42.981-96,96v21.333h21.333V96c0-41.237,33.429-74.667,74.667-74.667S330.667,54.763,330.667,96
			v21.333H352V96C352,42.981,309.019,0,256,0z"/>
	</g>
</g>
<g>
	<g>
		<rect x="213.334" y="20.156" transform="matrix(0.9762 -0.2169 0.2169 0.9762 -9.7054 50.2448)" width="21.344" height="98.347"/>
	</g>
</g>
<g>
	<g>
		
			<rect x="238.834" y="58.668" transform="matrix(0.2167 -0.9762 0.9762 0.2167 157.8954 335.474)" width="98.347" height="21.344"/>
	</g>
</g>
<g>
	<g>
		<path d="M301.792,248.459l-28.875,28.875h-33.835l-28.875-28.875l-15.083,15.083l32,32c2,2.001,4.713,3.125,7.541,3.125h42.667
			c2.829-0.001,5.541-1.125,7.541-3.125l32-32L301.792,248.459z"/>
	</g>
</g>
<g>
	<g>
		<rect x="245.333" y="288" width="21.333" height="53.333"/>
	</g>
</g>
<g>
	<g>
		<rect x="245.333" y="362.667" width="21.333" height="21.333"/>
	</g>
</g>
<g>
</g>
<g>
</g>
<g>
</g>
<g>
</g>
<g>
</g>
<g>
</g>
<g>
</g>
<g>
</g>
<g>
</g>
<g>
</g>
<g>
</g>
<g>
</g>
<g>
</g>
<g>
</g>
<g>
</g>
</svg>
